STARTFONT 2.1
FONT -AK Design-Seymour-Bold-R-Normal-Sans-32-320-100-100-M-320-CDC6000-1
SIZE 32 100 100
FONTBOUNDINGBOX 32 34 -4 -6
STARTPROPERTIES 25
FONTNAME_REGISTRY ""
FOUNDRY "AK Design"
FAMILY_NAME "Seymour"
WEIGHT_NAME "Bold"
SLANT "R"
SETWIDTH_NAME "Normal"
ADD_STYLE_NAME "Sans"
PIXEL_SIZE 32
POINT_SIZE 320
RESOLUTION_X 100
RESOLUTION_Y 100
SPACING "M"
AVERAGE_WIDTH 320
CHARSET_REGISTRY "CDC6000"
CHARSET_ENCODING "1"
COPYRIGHT "Copyright Paul Koning, 2003."
FACE_NAME "Seymour"
X_HEIGHT 28
CAP_HEIGHT 28
WEIGHT 10
RESOLUTION 100
QUAD_WIDTH 32
FONT_ASCENT 28
FONT_DESCENT 4
_XMBDFED_INFO "Edited with xmbdfed 4.5."
ENDPROPERTIES
CHARS 48
STARTCHAR char0
ENCODING 0
SWIDTH 720 0
DWIDTH 32 0
BBX 32 32 0 0
BITMAP
00000000
00000000
00000000
00000000
00000000
00000000
00000000
00000000
00000000
00000000
00000000
00000000
00000000
00000000
00000000
00000000
00000000
00000000
00000000
00000000
00000000
00000000
00000000
00000000
00000000
00000000
00000000
00000000
00000000
00000000
00000000
00000000
ENDCHAR
STARTCHAR char1
ENCODING 1
SWIDTH 720 0
DWIDTH 32 0
BBX 32 32 0 0
BITMAP
00000000
00000000
00000000
0000C000
0003E000
0007F000
0007F000
0007F000
000FF000
000FF000
000FF800
001FF800
001FFC00
001FFC00
003FFC00
003F7E00
007F7E00
007FFF00
00FFFF00
00FFFF80
00FFFF80
00FFFFC0
01FE1FE0
01F81FE0
01F80FF0
01F80FF0
01F00FE0
01E007C0
00000000
00000000
00000000
00000000
ENDCHAR
STARTCHAR char2
ENCODING 2
SWIDTH 720 0
DWIDTH 32 0
BBX 32 32 0 0
BITMAP
00000000
00000000
00000000
00FC0000
01FFFC00
01FFFF00
03FFFF80
03FFFFC0
03FFFFE0
03FFFFF0
03F81FF0
03F80FF0
03F80FF0
03F81FE0
03FFFFE0
03FFFFC0
03FFFF80
03FFFFE0
03FFFFE0
03FFDFF0
03F80FF0
03F807F0
03F80FF0
03FFFFF0
03FFFFE0
07FFFF80
07FFFF00
07FFFE00
03FFF800
00400000
00000000
00000000
ENDCHAR
STARTCHAR char3
ENCODING 3
SWIDTH 720 0
DWIDTH 32 0
BBX 32 32 0 0
BITMAP
00000000
00000000
00000000
00000000
00038000
001FF000
007FFC00
00FFFF00
01FFFF80
03FFFFC0
07F8FFC0
07F03FC0
07E01F80
07E00000
07E00000
0FE00000
0FE00000
07E00000
07E00000
07E00000
07F007E0
07F00FE0
07F80FE0
07FC1FE0
03FFFFC0
01FFFF80
00FFFF00
007FFE00
003FFC00
0007F000
00000000
00000000
ENDCHAR
STARTCHAR char4
ENCODING 4
SWIDTH 720 0
DWIDTH 32 0
BBX 32 32 0 0
BITMAP
00000000
00000000
00000000
00000000
00780000
01FFFC00
03FFFF00
03FFFF80
03FFFFC0
03FFFFE0
03FFFFE0
03F80FF0
03F807F0
03F807F0
03F807F0
03F807F0
03F807F0
03F807F0
03F807F0
03F807F0
03F807F0
03F807F0
03F80FE0
03F81FE0
03FC7FC0
07FFFF80
07FFFF00
07FFFE00
03FFFC00
01FFE000
00000000
00000000
ENDCHAR
STARTCHAR char5
ENCODING 5
SWIDTH 720 0
DWIDTH 32 0
BBX 32 32 0 0
BITMAP
00000000
00000000
00000000
00800000
07F01F00
0FFFFF00
1FFFFF80
1FFFFF00
1FFFFF00
1FFFFE00
0FFFE000
1FF80000
1FFF0000
1FFF0000
1FFF0000
1FFE0000
0FE00000
0FE00000
0FE00000
0FE00000
0FE00000
0FE00000
0FE00000
0FE00000
0FE0FFE0
0FFFFFE0
1FFFFFF0
1FFFFFE0
0FFFFFE0
0FFFFF80
03FC0000
00000000
ENDCHAR
STARTCHAR char6
ENCODING 6
SWIDTH 720 0
DWIDTH 32 0
BBX 32 32 0 0
BITMAP
00000000
00000000
00700000
00FE0FC0
01FFFFE0
03FFFFE0
03FFFFE0
03FFFFC0
03FFFF80
03FFFC00
03F80000
03F80000
03F80000
03F80000
03FFC000
03FFE000
03FFE000
03FFE000
03FFC000
03FF8000
03F80000
03F00000
03F00000
03F00000
03F00000
03F00000
03F00000
07F00000
07F00000
03E00000
03C00000
00000000
ENDCHAR
STARTCHAR char7
ENCODING 7
SWIDTH 720 0
DWIDTH 32 0
BBX 32 32 0 0
BITMAP
00000000
00000000
0003C000
001FF800
003FFC00
00FFFF00
01FFFFC0
03FFFFE0
03FCFFE0
07F03FE0
07E01FE0
07E00FC0
07E00300
07E00000
0FE07FC0
0FE1FFE0
0FE1FFE0
0FE3FFE0
0FE1FFE0
0FE0FFE0
0FE01FC0
0FE01FC0
07F01FC0
07F83FC0
07FC7F80
03FFFF00
03FFFE00
01FFFC00
00FFF800
003FE000
000E0000
00000000
ENDCHAR
STARTCHAR char8
ENCODING 8
SWIDTH 720 0
DWIDTH 32 0
BBX 32 32 0 0
BITMAP
00000000
000000F0
000001F0
000003F8
00C007F8
03F007F8
03F007F0
07F007F0
07F007F0
07F007F0
07F007F0
07F007F0
07F007F0
07F003F0
07F007F0
07FFFFF0
07FFFFF8
0FFFFFF8
0FFFFFF0
0FFFFFF0
0FFFFFF0
07F003F0
07F007F0
07F007F0
07F007F0
07F007F0
07F003F0
07F003F0
0FF003F0
0FF003F0
07E003E0
00000000
ENDCHAR
STARTCHAR char9
ENCODING 9
SWIDTH 720 0
DWIDTH 32 0
BBX 32 32 0 0
BITMAP
00000000
00000000
00000000
0001C000
0003E000
0007E000
0007E000
0007E000
0007E000
0007E000
0007E000
0007E000
0007E000
0007E000
0007E000
0007E000
0007E000
0007E000
0007E000
0007E000
0007E000
0007E000
0007E000
0007F000
0007F000
0007F000
0007F000
0007E000
0007E000
0003C000
00000000
00000000
ENDCHAR
STARTCHAR char10
ENCODING 10
SWIDTH 720 0
DWIDTH 32 0
BBX 32 32 0 0
BITMAP
00000000
00000000
00000000
00000100
000007C0
00000FE0
00000FE0
00000FE0
00000FE0
00000FE0
00000FE0
00000FE0
00000FE0
000007E0
000007E0
000007E0
000007E0
00C007E0
03E00FE0
07F00FE0
07F80FC0
07FC0FC0
03FE1FC0
01FF9F80
00FFFF80
007FFF00
003FFF00
001FFE00
000FFC00
0003F000
00000000
00000000
ENDCHAR
STARTCHAR char11
ENCODING 11
SWIDTH 720 0
DWIDTH 32 0
BBX 32 32 0 0
BITMAP
00000000
00000000
00000000
000001C0
000007F0
01C00FF0
07E03FF0
07F07FF0
0FF0FFE0
0FF3FF80
0FE7FE00
0FFFF800
0FFFE000
0FFFC000
0FFF8000
0FFF0000
0FFC0000
0FFE0000
0FFF8000
0FFFC000
0FFFF000
07FFFC00
0FFFFE00
0FFFFF00
0FF3FFC0
0FF0FFF0
0FF07FF8
0FF01FF8
0FF00FF8
07E007F0
010001C0
00000000
ENDCHAR
STARTCHAR char12
ENCODING 12
SWIDTH 720 0
DWIDTH 32 0
BBX 32 32 0 0
BITMAP
00000000
00000000
00700000
00F80000
01F80000
03F80000
03F80000
03F80000
03F80000
03F80000
03F80000
03F80000
03F80000
03F80000
03F80000
03F80000
03F80000
03F80000
03F80000
03F80000
03F80000
03F80000
03F80000
03F80000
03F87FE0
03FFFFF0
03FFFFF8
07FFFFF8
07FFFFF0
03FFFFE0
01FF0000
00200000
ENDCHAR
STARTCHAR char13
ENCODING 13
SWIDTH 720 0
DWIDTH 32 0
BBX 32 32 0 0
BITMAP
00000000
00000000
00C00180
01F007E0
07F00FE0
07F81FE0
0FF83FE0
0FF83FE0
07FC7FE0
07FC7FE0
07FEFFE0
07FFFFE0
07FFFFE0
07FFFFE0
07FFFFE0
07FFFFE0
07FFFFE0
07FFFFE0
07FFFFE0
07FFEFE0
07F78FE0
07F00FE0
07F00FE0
07F01FE0
07F01FE0
07F01FE0
07F01FE0
07F01FE0
07E01FE0
07C00FC0
00000700
00000000
ENDCHAR
STARTCHAR char14
ENCODING 14
SWIDTH 720 0
DWIDTH 32 0
BBX 32 32 0 0
BITMAP
00000000
00000000
00000000
00300040
00F803E0
01FC07F0
03FE0FF0
03FE0FF0
03FE0FF0
03FE0FF0
03FF07F0
03FF87F0
03FF87F0
03FFC7F0
03FFE7E0
03FFE7E0
03FFF7E0
03FFFFE0
03FFFFE0
03FBFFE0
03F9FFE0
03F9FFE0
03F8FFE0
03F8FFE0
03F87FE0
03F83FF0
03F81FF0
07F81FF0
07F00FF0
03E00FF0
008007C0
00000000
ENDCHAR
STARTCHAR char15
ENCODING 15
SWIDTH 720 0
DWIDTH 32 0
BBX 32 32 0 0
BITMAP
00000000
00000000
0000C000
0007F000
001FF800
003FFC00
007FFE00
00FFFE00
00FEFF00
01FC7F00
03F87F80
03F83F80
03F03F80
07F01F80
07F01F80
07E01FC0
07E01FC0
07F01FC0
07F01FC0
07F01F80
07E03F80
07F07F00
07F0FF00
03F9FE00
03FFFC00
01FFF800
01FFF000
00FFC000
007F0000
00000000
00000000
00000000
ENDCHAR
STARTCHAR char16
ENCODING 16
SWIDTH 720 0
DWIDTH 32 0
BBX 32 32 0 0
BITMAP
00000000
00000000
00000000
00600000
01FC0000
01FFF800
03FFFE00
03FFFF00
03FFFFC0
03FFFFE0
03FFFFE0
03F01FE0
01F80FE0
01FC0FE0
03FFFFE0
03FFFFC0
03FFFF80
03FFFF00
01FFFC00
01FFE000
01F80000
01F80000
01FC0000
01FC0000
01FC0000
00FC0000
00F80000
00700000
00000000
00000000
00000000
00000000
ENDCHAR
STARTCHAR char17
ENCODING 17
SWIDTH 720 0
DWIDTH 32 0
BBX 32 32 0 0
BITMAP
00000000
00000000
00000000
000F0000
001FC000
003FF000
007FF000
00FFFC00
00FFFE00
01FFFF00
01F8FF00
03F07F80
03F03F80
07E01FC0
07E01FC0
07E00FC0
07E00FC0
07E02FC0
07E0FFC0
07F1FFC0
07F9FFC0
03FDFF80
03FCFF80
01FFFFC0
00FFFFC0
007FFFE0
003FFFE0
003FFFE0
000FE7C0
00000000
00000000
00000000
ENDCHAR
STARTCHAR char18
ENCODING 18
SWIDTH 720 0
DWIDTH 32 0
BBX 32 32 0 0
BITMAP
00000000
00000000
00000000
00000000
00000000
00F00000
01FC0000
03FFF800
03FFFF00
07FFFF80
03FFFFC0
03FFFFC0
03F87FE0
03F81FE0
03F80FE0
03FE1FE0
03FFFFC0
03FFFF80
03FFFF80
03FFFE00
03FFFF00
01FFFF80
01F8FFE0
01FC7FF0
01FC1FF8
01FC0FF0
01FC07F0
01FC01C0
01F80000
00600000
00000000
00000000
ENDCHAR
STARTCHAR char19
ENCODING 19
SWIDTH 720 0
DWIDTH 32 0
BBX 32 32 0 0
BITMAP
00000000
00000000
00000000
00000000
00000000
00010000
003FF000
00FFF800
03FFFE00
07FFFF80
07FFFFC0
0FF0FFC0
0FE03FC0
0FE01F80
0FF00E00
0FFFC000
07FFF800
03FFFE00
01FFFF00
007FFF80
0007FFC0
00007FC0
03E01FC0
07F81FC0
07FF3FC0
07FFFF80
03FFFF80
00FFFE00
003FFC00
0007F000
00000000
00000000
ENDCHAR
STARTCHAR char20
ENCODING 20
SWIDTH 720 0
DWIDTH 32 0
BBX 32 32 0 0
BITMAP
00000000
00000000
00000000
00000000
00000000
00FFFFC0
01FFFFE0
03FFFFE0
03FFFFE0
03FFFFC0
01FFFF80
0003F000
0003F800
0003F800
0003F800
0003F800
0003F800
0001F800
0001F800
0001F800
0001F800
0001F800
0001F800
0001F800
0001F800
0001F800
0001F800
0001F800
0001F800
0000F000
00000000
00000000
ENDCHAR
STARTCHAR char21
ENCODING 21
SWIDTH 720 0
DWIDTH 32 0
BBX 32 32 0 0
BITMAP
00000000
00000000
00000000
01C003C0
03E007E0
07F00FE0
07F00FE0
07F00FE0
07F00FE0
07F00FE0
07F00FE0
07F00FE0
07F00FE0
07F00FE0
07F00FE0
07F007E0
07F007E0
07F007E0
07F007E0
07F007E0
07F007E0
07F007E0
03F80FE0
03FC0FE0
03FE0FC0
01FFFFC0
01FFFFC0
00FFFF80
007FFF80
003FFF00
0007FC00
00000000
ENDCHAR
STARTCHAR char22
ENCODING 22
SWIDTH 720 0
DWIDTH 32 0
BBX 32 32 0 0
BITMAP
00000000
00000000
00000000
00000000
01F001F0
03F007F0
03F007F0
03F807F0
03F80FF0
03F80FE0
01FC0FE0
01FC1FC0
01FC1FC0
00FE1FC0
00FE1F80
00FF3F80
007F3F00
007FBF00
003FBF00
003FFE00
003FFE00
001FFE00
001FFE00
000FFE00
000FFE00
0007FC00
0007FC00
0007FC00
0007FC00
0003F800
0001E000
00000000
ENDCHAR
STARTCHAR char23
ENCODING 23
SWIDTH 720 0
DWIDTH 32 0
BBX 32 32 0 0
BITMAP
00000000
00000000
00000000
00000000
01C003C0
03E007E0
07F00FE0
07F00FE0
07F00FE0
07F00FE0
07F00FE0
07F00FE0
07F00FE0
07F00FE0
07F3CFE0
07E7EFE0
07EFEFE0
07EFFFE0
07FFFFE0
07FFFFE0
07FFFFE0
07FFFFE0
07FFFFE0
07FE7FE0
07FE7FE0
07FC3FE0
07FC1FE0
07F81FE0
07F00FE0
03C007C0
00000000
00000000
ENDCHAR
STARTCHAR char24
ENCODING 24
SWIDTH 720 0
DWIDTH 32 0
BBX 32 32 0 0
BITMAP
00000000
00000000
00000000
00000000
01F00000
03F80000
03FC01E0
07FC03E0
03FE07F0
01FF0FE0
00FF1FC0
007F9FC0
007FFF80
003FFF00
001FFE00
000FFC00
0007FC00
0007F800
0007F800
000FFC00
000FFE00
001FFE00
003FFF00
007F3F00
00FE3F80
01FC1FE0
01FC1FF0
03F80FF0
01F00FF0
008007E0
00000000
00000000
ENDCHAR
STARTCHAR char25
ENCODING 25
SWIDTH 720 0
DWIDTH 32 0
BBX 32 32 0 0
BITMAP
00000000
00000000
00000000
00000000
01E000C0
07F803F0
07F807F0
0FF80FF0
07FC0FF0
07FC1FE0
01FE3FC0
01FF3F80
00FF7F00
007FFF00
003FFE00
003FFC00
001FFC00
000FF800
000FF800
000FF000
000FF000
0007F000
0007F000
0007F000
0007F000
0007F000
0007F000
0007F000
0007E000
0007E000
00030000
00000000
ENDCHAR
STARTCHAR char26
ENCODING 26
SWIDTH 720 0
DWIDTH 32 0
BBX 32 32 0 0
BITMAP
00000000
00000000
00000000
00001FC0
01FFFFF0
03FFFFF0
07FFFFF0
07FFFFF0
03FFFFE0
00F03F80
00007F80
0000FF00
0001FE00
0001FC00
0003F800
0007F000
000FE000
001FE000
001FC000
003F8000
007F0000
00FE0000
01FC0000
03FC1FE0
07FBFFF0
0FFFFFF8
0FFFFFF8
0FFFFFF0
07FFFFC0
03FE0000
00000000
00000000
ENDCHAR
STARTCHAR char27
ENCODING 27
SWIDTH 720 0
DWIDTH 32 0
BBX 32 32 0 0
BITMAP
00000000
00000000
00000000
00000000
000FE000
003FFF00
007FFF80
00FFFFC0
01FFFFE0
01FDFFF0
03F81FF0
03F80FF0
03F807F0
03F807F0
03F807F0
03F807F0
03F807F0
03F807F0
03F807E0
03F807E0
03F807E0
07F80FE0
07F80FE0
07FC0FE0
07FE0FE0
07FFFFC0
01FFFF80
00FFFF80
007FFF00
001FFC00
00008000
00000000
ENDCHAR
STARTCHAR char28
ENCODING 28
SWIDTH 720 0
DWIDTH 32 0
BBX 32 32 0 0
BITMAP
00000000
00000000
00000000
00000000
00007000
0001F800
0003FC00
0007FC00
000FFC00
001FF800
007FF800
007FF800
00FFF800
007FF800
0003F800
0003F800
0003F800
0003F800
0003F800
0003F800
0003F800
0003F800
0003F800
0003F800
0003F800
0003F800
0003F800
0003F800
0003F000
0001C000
00000000
00000000
ENDCHAR
STARTCHAR char29
ENCODING 29
SWIDTH 720 0
DWIDTH 32 0
BBX 32 32 0 0
BITMAP
00000000
00000000
00000000
00000000
0001F800
000FFC00
003FFF00
00FFFF80
01FFFFC0
03FE7FE0
03F81FE0
03F01FE0
01801FE0
00003FE0
00007FC0
0001FF00
0007FE00
000FF800
001FF000
003FC000
00FF0000
01FE0000
03FC0000
03FFFFC0
07FFFFE0
0FFFFFE0
0FFFFFC0
0FFFFF80
03E00000
00000000
00000000
00000000
ENDCHAR
STARTCHAR char30
ENCODING 30
SWIDTH 720 0
DWIDTH 32 0
BBX 32 32 0 0
BITMAP
00000000
00000000
00000000
00000000
003C07E0
00FFFFF0
01FFFFF0
03FFFFF0
01FFFFE0
00FFFF80
0001FF00
0007FC00
001FFE00
003FFF00
003FFF80
003FFF80
000C3FC0
00001FC0
00000FC0
00000FC0
00000FC0
00600FC0
01F81FC0
03FC1FC0
03FFFF80
03FFFF00
00FFFE00
007FFC00
001FF000
0001C000
00000000
00000000
ENDCHAR
STARTCHAR char31
ENCODING 31
SWIDTH 720 0
DWIDTH 32 0
BBX 32 32 0 0
BITMAP
00000000
00000000
00000000
0000F000
0003F800
0007F800
0007F800
000FF800
000FF000
000FF000
001FF000
003FF000
003FF000
007FF000
00FEF000
01FCF000
03FCF000
03FFFF00
07FFFF80
0FFFFF80
1FFFFF80
1FFFFF00
1FEFF800
0F8FE000
000FF000
000FF000
000FE000
0007C000
00030000
00000000
00000000
00000000
ENDCHAR
STARTCHAR char32
ENCODING 32
SWIDTH 720 0
DWIDTH 32 0
BBX 32 32 0 0
BITMAP
00000000
00000000
00000000
00000000
00000000
07C00000
0FFE1E00
0FFFFF00
0FFFFF80
0FFFFF80
0FFFFF80
0FFFFF00
0FFF8000
0FFFF000
0FFFFC00
0FFFFE00
0FFFFF00
03FFFF80
00007F80
00001FC0
00000FC0
01E00FC0
03F80FC0
03FE0FC0
03FFFFC0
01FFFF80
00FFFF80
003FFF00
001FFC00
0003F800
00000000
00000000
ENDCHAR
STARTCHAR char33
ENCODING 33
SWIDTH 720 0
DWIDTH 32 0
BBX 32 32 0 0
BITMAP
00000000
00000000
00000000
00000000
00000000
001FF000
003FF800
007FFE00
00FFFF80
01FFFFC0
03FC1FE0
03F1E7E0
03FFF9E0
03FFFCC0
03FFFE40
03FFFF00
03FFFFC0
03FC3FC0
03F81FE0
03F00FE0
03F807E0
03F807E0
01FC07E0
01FE0FE0
00FFFFE0
007FFFC0
003FFF80
001FFE00
000FFC00
0003E000
00000000
00000000
ENDCHAR
STARTCHAR char34
ENCODING 34
SWIDTH 720 0
DWIDTH 32 0
BBX 32 32 0 0
BITMAP
00000000
00000000
00000000
00000000
00000000
00FF87C0
01FFFFE0
01FFFFE0
01FFFFE0
00FFFFE0
000FFFC0
00003F80
00007F00
0000FE00
0000FC00
0001FC00
0003F800
0003F000
0003F000
0007E000
0007E000
0007E000
000FE000
000FE000
000FE000
000FE000
000FC000
0007C000
00030000
00000000
00000000
00000000
ENDCHAR
STARTCHAR char35
ENCODING 35
SWIDTH 720 0
DWIDTH 32 0
BBX 32 32 0 0
BITMAP
00000000
00000000
00000000
00000000
00000000
001F8000
007FF000
01FFFC00
07FFFE00
07FFFF00
0FFFFF80
0FE0FF80
1FC03F80
1FE01F80
0FFFFF80
0FFFFF80
07FFFF00
03FFFF00
03FFFF80
07FFFF80
07FFFFC0
0FF03FC0
0FF81FC0
0FFE3FC0
07FFFFC0
07FFFF80
00FFFF00
003FFC00
000FF000
00000000
00000000
00000000
ENDCHAR
STARTCHAR char36
ENCODING 36
SWIDTH 720 0
DWIDTH 32 0
BBX 32 32 0 0
BITMAP
00000000
00000000
00000000
00000000
0007C000
001FF800
007FFC00
00FFFE00
01FFFF00
03FFFF80
03F87F80
07F03FC0
07E01FC0
07E01FC0
07E00FC0
07F00FE0
07F01FE0
07F83FE0
03FFFFE0
01FFFFE0
00FFFFE0
003FFFE0
03CFFFE0
03F1CFE0
03FE3FC0
03FFFFC0
00FFFF80
003FFF00
000FFE00
0003F800
00000000
00000000
ENDCHAR
STARTCHAR char37
ENCODING 37
SWIDTH 720 0
DWIDTH 32 0
BBX 32 32 0 0
BITMAP
00000000
00000000
00000000
00000000
00000000
00000000
0000E000
0001F000
0003F000
0003F800
0003F800
0003F800
0003F800
0003F800
00FFF800
01FFFFE0
03FFFFE0
03FFFFF0
03FFFFF0
01FFFFE0
0001FBC0
0003F800
0003F800
0003F800
0001F800
0001F800
0003F800
0001F800
0001F000
00000000
00000000
00000000
ENDCHAR
STARTCHAR char38
ENCODING 38
SWIDTH 720 0
DWIDTH 32 0
BBX 32 32 0 0
BITMAP
00000000
00000000
00000000
00000000
00000000
00000000
00000000
00000000
00000000
00000000
00000000
00000000
00000000
01FFFFC0
03FFFFE0
07FFFFE0
07FFFFE0
07FFFFE0
03FFFFC0
00000700
00000000
00000000
00000000
00000000
00000000
00000000
00000000
00000000
00000000
00000000
00000000
00000000
ENDCHAR
STARTCHAR char39
ENCODING 39
SWIDTH 720 0
DWIDTH 32 0
BBX 32 32 0 0
BITMAP
00000000
00000000
00000000
00000000
00000000
00000000
00000000
00040000
001E0F00
003F1F80
003FBF80
003FFF00
001FFF00
000FFE00
007FFE00
00FFFC00
00FFFC00
00FFFF00
007FFF00
000FFF80
003FFF80
003FBFC0
007F9FC0
007F1FE0
003E1FC0
00000F80
00000000
00000000
00000000
00000000
00000000
00000000
ENDCHAR
STARTCHAR char40
ENCODING 40
SWIDTH 720 0
DWIDTH 32 0
BBX 32 32 0 0
BITMAP
00000000
00000000
00000000
00000000
000001C0
000007F0
00000FF0
00000FF0
00001FE0
00001FC0
00003F80
00007F00
0000FE00
0001FE00
0003FC00
0007F800
0007F000
000FE000
001FC000
003F8000
007F0000
00FE0000
00FE0000
01FC0000
03F80000
07F00000
0FF00000
0FE00000
07800000
00000000
00000000
00000000
ENDCHAR
STARTCHAR char41
ENCODING 41
SWIDTH 720 0
DWIDTH 32 0
BBX 32 32 0 0
BITMAP
00000000
00000000
00000000
00000000
0000F000
0003F800
0003F800
0007F800
0007F800
000FF000
000FE000
000FE000
000FE000
000FC000
000FC000
001FC000
001FC000
001FC000
001FC000
001FC000
001FC000
001FC000
001FC000
000FE000
000FE000
000FF000
000FF000
0007F000
0003E000
00000000
00000000
00000000
ENDCHAR
STARTCHAR char42
ENCODING 42
SWIDTH 720 0
DWIDTH 32 0
BBX 32 32 0 0
BITMAP
00000000
00000000
00000000
00000000
0003C000
0007E000
0007E000
000FF000
0007F000
0007F800
0007F800
0003F800
0003F800
0003F800
0003F800
0003F800
0003F800
0003F800
0003F000
0003F000
0003F000
0007F000
0007F000
0007F000
000FE000
001FE000
001FC000
001FC000
000E0000
00000000
00000000
00000000
ENDCHAR
STARTCHAR char43
ENCODING 43
SWIDTH 720 0
DWIDTH 32 0
BBX 32 32 0 0
BITMAP
00000000
00000000
00000000
00000000
00000000
00000000
00000000
00000000
00000000
00000000
00000000
00000000
00000000
00000000
00000000
00000000
00000000
00000000
00000000
00000000
00000000
00000000
00000000
00000000
00000000
00000000
00000000
00000000
00000000
00000000
00000000
00000000
ENDCHAR
STARTCHAR char44
ENCODING 44
SWIDTH 720 0
DWIDTH 32 0
BBX 32 32 0 0
BITMAP
00000000
00000000
00000000
00000000
00000000
00000000
00000000
00000000
00000000
00000000
00000000
00FFFFE0
01FFFFF0
03FFFFF0
03FFFFF0
01FFFFE0
00F00000
00000000
00203F80
01FFFFC0
03FFFFE0
03FFFFC0
03FFFFC0
00FFFE00
00000000
00000000
00000000
00000000
00000000
00000000
00000000
00000000
ENDCHAR
STARTCHAR char45
ENCODING 45
SWIDTH 720 0
DWIDTH 32 0
BBX 32 32 0 0
BITMAP
00000000
00000000
00000000
00000000
00000000
00000000
00000000
00000000
00000000
00000000
00000000
00000000
00000000
00000000
00000000
00000000
00000000
00000000
00000000
00000000
00000000
00000000
00000000
00000000
00000000
00000000
00000000
00000000
00000000
00000000
00000000
00000000
ENDCHAR
STARTCHAR char46
ENCODING 46
SWIDTH 720 0
DWIDTH 32 0
BBX 32 32 0 0
BITMAP
00000000
00000000
00000000
00000000
00000000
00000000
00000000
00000000
00000000
00000000
00000000
00000000
00000000
00000000
00000000
00000000
00000000
00000000
000E0000
003F8000
007F8000
00FF8000
00FF8000
01FF0000
01FE0000
01FC0000
01F80000
00C00000
00000000
00000000
00000000
00000000
ENDCHAR
STARTCHAR char47
ENCODING 47
SWIDTH 720 0
DWIDTH 32 0
BBX 32 32 0 0
BITMAP
00000000
00000000
00000000
00000000
00000000
00000000
00000000
00000000
00000000
00000000
00000000
00000000
00000000
00000000
00000000
00000000
00000000
00000000
00000000
00000000
007F0000
00FF0000
00FF0000
00FF0000
00FF0000
007C0000
00000000
00000000
00000000
00000000
00000000
00000000
ENDCHAR
ENDFONT
